{"asset":{"version":"2.0","generator":"Blockbench 4.9.3 glTF exporter"},"scenes":[{"nodes":[1],"name":"blockbench_export"}],"scene":0,"nodes":[{"name":"cuboid","mesh":0},{"children":[0]}],"bufferViews":[{"buffer":0,"byteOffset":0,"byteLength":8832,"target":34962,"byteStride":12},{"buffer":0,"byteOffset":8832,"byteLength":8832,"target":34962,"byteStride":12},{"buffer":0,"byteOffset":17664,"byteLength":5888,"target":34962,"byteStride":8},{"buffer":0,"byteOffset":23552,"byteLength":2208,"target":34963}],"buffers":[{"byteLength":25760,"uri":"data:application/octet-stream;base64,"}],"accessors":[{"bufferView":0,"componentType":5126,"count":736,"max":[1,2,1],"min":[-1,0,-3],"type":"VEC3"},{"bufferView":1,"componentType":5126,"count":736,"max":[1,1,1],"min":[-1,-1,-1],"type":"VEC3"},{"bufferView":2,"componentType":5126,"count":736,"max":[0.9375,0.5],"min":[0,0],"type":"VEC2"},{"bufferView":3,"componentType":5123,"count":1104,"max":[735],"min":[0],"type":"SCALAR"}],"materials":[{"pbrMetallicRoughness":{"metallicFactor":0,"roughnessFactor":1,"baseColorTexture":{"index":0}},"alphaMode":"MASK","alphaCutoff":0.05,"doubleSided":true}],"textures":[{"sampler":0,"source":0}],"samplers":[{"magFilter":9728,"minFilter":9728,"wrapS":33071,"wrapT":33071}],"images":[{"mimeType":"image/png"}],"meshes":[{"primitives":[{"mode":4,"attributes":{"POSITION":0,"NORMAL":1,"TEXCOORD_0":2},"indices":3,"material":0}]}]}